<svg width="52" height="47" viewBox="0 0 52 47" fill="none" xmlns="http://www.w3.org/2000/svg">
<path d="M46.7999 0.198713C46.5013 0.190676 46.2091 0.28571 45.9723 0.46783C45.7355 0.649951 45.5687 0.908049 45.4999 1.19871L42.2999 13.6987H21.6999C20.7716 13.6987 19.8814 14.0675 19.225 14.7238C18.5687 15.3802 18.1999 16.2705 18.1999 17.1987C18.1999 18.127 18.5687 19.0172 19.225 19.6736C19.8814 20.33 20.7716 20.6987 21.6999 20.6987H41.1999C41.5447 20.6987 41.8753 20.5618 42.1191 20.318C42.3629 20.0742 42.4999 19.7435 42.4999 19.3987C42.4999 19.0539 42.3629 18.7233 42.1191 18.4795C41.8753 18.2357 41.5447 18.0987 41.1999 18.0987H21.6999C21.4612 18.0987 21.2323 18.0039 21.0635 17.8351C20.8947 17.6663 20.7999 17.4374 20.7999 17.1987C20.7999 16.96 20.8947 16.7311 21.0635 16.5623C21.2323 16.3935 21.4612 16.2987 21.6999 16.2987H47.0999C47.2313 16.295 47.362 16.32 47.4829 16.3718C47.6037 16.4236 47.7119 16.501 47.7999 16.5987C47.9567 16.7963 48.0286 17.0481 47.9999 17.2987L43.4999 34.9987H6.4999C5.01469 34.9987 3.59031 35.5887 2.5401 36.6389C1.4899 37.6891 0.899902 39.1135 0.899902 40.5987C0.899902 42.0839 1.4899 43.5083 2.5401 44.5585C3.59031 45.6087 5.01469 46.1987 6.4999 46.1987H45.4999C46.9347 46.1944 48.3134 45.6412 49.3533 44.6526C50.3931 43.664 51.0152 42.315 51.092 40.8822C51.1688 39.4495 50.6943 38.0417 49.766 36.9477C48.8378 35.8536 47.526 35.1563 46.0999 34.9987L50.3999 17.9987C50.5246 17.4851 50.5354 16.9505 50.4318 16.4323C50.3282 15.9141 50.1125 15.4248 49.7999 14.9987C49.5043 14.5633 49.0989 14.2138 48.6248 13.9855C48.1506 13.7572 47.6246 13.6583 47.0999 13.6987H44.9999L47.9999 1.89871C48.076 1.55419 48.0138 1.19357 47.8268 0.894378C47.6398 0.595186 47.3429 0.381305 46.9999 0.298714C46.9999 0.198714 46.8999 0.198713 46.7999 0.198713ZM6.4999 39.2987H45.4999C46.6312 39.3239 47.7079 39.7904 48.4999 40.5987C48.5072 40.9947 48.4346 41.3881 48.2865 41.7554C48.1383 42.1227 47.9176 42.4563 47.6375 42.7364C47.3575 43.0164 47.0238 43.2371 46.6566 43.3853C46.2893 43.5334 45.8959 43.606 45.4999 43.5987H6.4999C6.10392 43.606 5.71053 43.5334 5.34324 43.3853C4.97595 43.2371 4.64231 43.0164 4.36226 42.7364C4.08221 42.4563 3.86151 42.1227 3.71334 41.7554C3.56517 41.3881 3.49257 40.9947 3.4999 40.5987C3.87983 40.1825 4.34359 39.8515 4.86067 39.6274C5.37775 39.4033 5.93641 39.2913 6.4999 39.2987Z" fill="#173752"/>
</svg>