<svg width="85" height="85" viewBox="0 0 85 85" fill="none" xmlns="http://www.w3.org/2000/svg">
<path d="M42.502 0C19.0262 0 0.00195312 19.0293 0.00195312 42.5C0.00195312 65.9734 19.0286 85 42.502 85C65.9727 85 84.9993 65.9734 84.9993 42.5C84.9993 19.0319 65.9727 0 42.502 0ZM42.502 77.0311C23.4302 77.0311 7.97083 61.5718 7.97083 42.5C7.97083 23.4282 23.4329 7.96888 42.502 7.96888C61.5711 7.96888 77.0304 23.4282 77.0304 42.5C77.0304 61.5718 61.5714 77.0311 42.502 77.0311ZM59.2046 24.4216C57.3982 23.3433 55.09 23.9833 54.0515 25.8559L39.8006 51.4542L31.8638 41.7934C30.4268 40.1386 28.517 39.2807 26.7134 40.3591C24.907 41.4401 24.1606 44.0407 25.3295 45.7089L36.3742 59.1521C37.2003 60.2251 38.1431 60.8681 39.1287 61.0515L39.1368 61.0675L39.2378 61.0729C39.461 61.1073 42.7973 61.7236 44.2343 59.1524L60.5917 29.7717C61.6296 27.8958 61.0109 25.5026 59.2046 24.4216Z" fill="#3DB39E"/>
</svg>
