<svg width="16" height="17" viewBox="0 0 16 17" fill="none" xmlns="http://www.w3.org/2000/svg">
<path d="M3.31921 7.50993C1.99845 8.83236 1.07474 10.4985 0.652849 12.3192L0.031698 15C-0.0119978 15.1998 -0.0104998 15.4069 0.0360822 15.6061C0.0826642 15.8053 0.173154 15.9915 0.30094 16.1513C0.428727 16.311 0.590582 16.4402 0.774682 16.5293C0.958782 16.6185 1.16048 16.6654 1.36503 16.6667C1.46034 16.6763 1.55638 16.6763 1.6517 16.6667L4.36456 16.0419C6.18613 15.6224 7.85365 14.7007 9.17792 13.3815L14.7576 7.82293C16.3876 6.19904 16.3887 3.55995 14.7598 1.93481C13.1351 0.313723 10.504 0.316046 8.88208 1.94L3.31921 7.50993Z" fill="#173752"/>
</svg>
